<svg width="33" height="32" viewBox="0 0 33 32" fill="none" xmlns="http://www.w3.org/2000/svg">
<g clip-path="url(#clip0_1_568)">
<mask id="mask0_1_568" style="mask-type:luminance" maskUnits="userSpaceOnUse" x="0" y="0" width="33" height="32">
<path d="M32.0625 0H0.0625V32H32.0625V0Z" fill="white"/>
</mask>
<g mask="url(#mask0_1_568)">
<path d="M23.8789 28.5761C20.2386 39.4752 10.5285 42.8367 5.39453 29.3028C4.68627 27.4422 6.53214 26.7523 7.82389 25.9303C8.70829 25.3688 9.17435 24.8844 9.1193 24.3817C8.86242 22.0183 7.76517 15.4349 7.76517 15.4349L7.65508 15.222C7.65508 15.222 7.68077 15.1633 7.57435 15.2661C7.46425 15.3761 7.21104 16.5211 6.21655 16.5211C5.31747 16.5211 4.41104 16.1211 3.97802 13.3541C3.81288 12.3523 3.90095 9.72477 5.01655 9.24771C5.47526 9.05321 5.89728 8.98349 6.30829 9.21835C6.72297 9.45321 5.83123 8.41101 10.4184 4.59449C13.3982 2.10642 18.1065 1.74312 20.0074 2.16514C21.9083 2.58715 23.8055 3.51559 24.6459 5.48624C25.6661 7.87156 23.6954 9.68073 24.1321 15.1193C24.0514 17.0862 24.1615 21.4018 18.7523 22.8477C17.7248 23.1229 18.0441 24.6239 19.5854 24.9908C22.0441 25.7615 23.8789 27.644 23.8789 28.5835" fill="white"/>
<path fill-rule="evenodd" clip-rule="evenodd" d="M23.879 11.6404L23.8827 11.589C24.0331 10.2532 24.1836 8.9578 24.8772 7.79449C25.1157 7.95596 25.0863 8.16147 25.0129 8.35229C24.2827 10.2312 24.3524 12.1835 24.4184 14.1358L24.4331 14.6495C24.5102 17.0862 23.901 19.3028 22.279 21.1633C21.7139 21.8092 20.9652 22.2569 20.2056 22.6422C19.4203 23.0459 19.2551 23.3798 19.501 24.2422L19.5304 24.3376C19.5817 24.4807 19.6331 24.6275 19.4937 24.7706C19.3285 24.9394 19.145 24.8917 18.9505 24.8367L18.9285 24.833C17.109 24.3236 15.4029 23.473 13.901 22.3266C13.6808 22.1651 13.5047 21.9486 13.3322 21.7358L13.3212 21.7211C13.2294 21.611 13.2111 21.4349 13.3395 21.3394C13.4606 21.2477 13.5524 21.3211 13.6588 21.4055L13.6955 21.4385C14.4968 22.0887 15.4694 22.4928 16.4955 22.6018C16.9872 22.6532 17.4716 22.6349 17.9634 22.6165C18.235 22.6055 18.5065 22.5945 18.7817 22.5982C19.1561 22.5982 19.468 22.4257 19.7616 22.2605L19.8643 22.2018C20.8845 21.633 21.857 20.9982 22.5139 19.9743C23.1047 19.0569 23.4643 18.0587 23.6735 17.0055C23.9377 15.6807 23.9157 14.3376 23.8937 12.9761C23.8827 12.5358 23.8753 12.0881 23.8753 11.6404H23.879ZM5.40559 8.87339C6.20926 8.81101 6.6533 9.2844 7.03128 9.83853C7.47926 10.5156 7.76092 11.2889 7.8533 12.0954C7.87165 12.2312 7.89 12.3743 7.80926 12.5101C7.64413 12.5321 7.62945 12.4 7.62578 12.3046C7.60743 11.545 7.26981 10.8844 6.9322 10.2459C6.69 9.78716 6.3377 9.34312 5.77991 9.23303C5.14871 9.10459 4.5689 9.67339 4.28266 10.4147C3.75055 11.7945 3.84229 13.1523 4.33403 14.4881C4.54688 15.0716 4.81477 15.6661 5.35422 16.0734C5.89734 16.4881 6.55422 16.4147 6.95422 15.8642L7.02761 15.7725C7.10101 15.6771 7.1744 15.5853 7.2111 15.4789C7.28816 15.2661 7.40926 15.0679 7.62578 15.0972C7.87532 15.1339 7.91936 15.4018 7.94504 15.611C8.1727 17.5334 8.44187 19.4507 8.75238 21.3615L8.9689 22.7853C9.06431 23.4128 9.1744 24.3156 9.10101 24.6972C9.09627 24.724 9.0926 24.7509 9.09 24.778C9.07532 24.8807 9.06798 24.9615 8.93587 24.9798C8.75605 25.0092 8.67899 24.9064 8.6533 24.745C8.5689 24.1211 8.54321 23.8789 8.50651 22.9248C8.47348 22 8.30101 21.0899 8.12486 20.1761L7.94137 19.1853C7.75055 18.055 7.56339 16.9101 7.54504 15.6257L7.47165 15.7358C7.19275 16.1505 6.9689 16.4881 6.57257 16.6165C6.27836 16.7292 5.95595 16.7455 5.65187 16.6631C5.3478 16.5806 5.07779 16.4037 4.88082 16.1578C4.36371 15.5737 4.00046 14.8699 3.82394 14.1101C3.51569 12.8624 3.46064 11.6477 3.85697 10.4183C4.0478 9.82752 4.72669 8.77798 5.40559 8.87706V8.87339ZM6.67532 13.5523C6.83679 13.6697 6.98358 13.7725 7.11569 13.3541C7.07532 11.8055 6.57624 10.8147 5.80192 10.7743C6.21293 11.3101 6.60926 11.8312 6.64596 12.5541C6.49326 12.4761 6.35929 12.366 6.2533 12.2312C6.17991 12.1505 6.10651 12.0697 6.01477 12.011L5.90468 11.9229C5.72853 11.7908 5.54871 11.6514 5.25147 11.7578C5.39092 11.9706 5.58174 12.1248 5.77624 12.2716C5.99642 12.444 6.2166 12.6128 6.34871 12.8771C5.95972 13.1596 5.79092 13.5266 5.99275 13.9743C6.1689 14.3596 6.42945 14.6789 6.94321 14.7009C6.92119 14.4697 6.77073 14.3009 6.62027 14.1358C6.43679 13.9376 6.26431 13.7468 6.34504 13.4532C6.46247 13.3982 6.57257 13.4789 6.67532 13.5523Z" fill="black"/>
<path d="M38.7928 48.4037L-9.04944 48.2752C-9.04944 48.2752 -7.33568 37.1156 -2.75953 31.945C-0.708153 29.6294 0.998268 27.3431 5.58175 25.6991C6.36708 25.4165 7.53038 22.4697 8.15423 22.1615C8.74506 21.8679 8.35607 24.0771 8.90285 24.5248C10.0178 25.4551 11.1949 26.3085 12.4258 27.0789C14.5873 28.444 15.5818 31.2954 15.5818 31.2954C15.5818 31.2954 16.5506 28.5468 17.3579 27.1963C17.9267 26.2422 19.8276 23.4385 19.8276 23.4385C19.8276 23.4385 23.3029 24.5248 24.5909 25.4826C25.3726 26.0624 24.9139 25.934 28.4588 27.9596C31.5377 29.7174 34.5579 34.5321 36.1652 38.5285C37.8753 42.778 38.7928 48.4 38.7928 48.4V48.4037Z" fill="white"/>
<path fill-rule="evenodd" clip-rule="evenodd" d="M38.5579 48.4037C38.312 47.4129 38.0992 46.422 37.8864 45.4275C37.7946 44.9872 37.7029 44.5468 37.6038 44.1138C37.3029 42.756 36.9065 41.4349 36.4698 40.1211C36.0491 38.8431 35.5339 37.598 34.9286 36.3963C34.3272 35.1693 33.6405 33.986 32.8735 32.8551C31.7726 31.2661 30.5763 29.7541 28.9909 28.6202C27.8386 27.7982 26.5616 27.1817 25.2882 26.5688C24.8368 26.3486 24.3744 26.4514 23.923 26.5505L23.7763 26.5872C23.413 26.6606 23.057 26.7413 22.6974 26.822C22.2664 26.9202 21.8346 27.0144 21.402 27.1046C21.2148 27.1413 21.1451 27.2514 21.09 27.4055L20.8698 28.0477C20.7194 28.4954 20.5653 28.9431 20.4258 29.3945C20.3304 29.6954 20.1689 29.8275 19.8497 29.8202C19.5781 29.8165 19.3065 29.8202 19.035 29.8275C18.7414 29.8312 18.4515 29.8385 18.1616 29.8312C17.6478 29.8202 17.3946 30.0037 17.457 30.6202C17.5267 31.2807 17.5231 31.945 17.5231 32.6129C17.5231 33.0055 17.5231 33.3982 17.5341 33.7945C17.5708 34.8037 17.5708 35.8239 17.5524 36.8294C17.5157 38.7119 17.5157 40.5945 17.5157 42.4807C17.5194 44.433 17.5231 46.389 17.479 48.3596C17.3379 48.4009 17.1884 48.4035 17.046 48.367C16.9983 46.3817 16.9763 44.4294 16.9873 42.4771C16.9946 41.3101 16.9873 40.1395 16.9836 38.9688C16.9689 36.6239 16.9579 34.2789 17.0497 31.934C17.057 31.8055 17.013 31.6881 16.8698 31.6844C16.7862 31.778 16.7018 31.871 16.6166 31.9633C16.1469 32.4771 15.6845 32.9835 15.4643 33.7211C15.1597 33.3688 15.035 32.9578 14.9102 32.5651C14.7744 32.1284 14.6423 31.7101 14.2864 31.3945C14.213 31.6073 14.213 31.8018 14.213 32V33.211L14.2203 35.7431L14.2166 38.8404C14.213 41.0789 14.2093 43.3138 14.2166 45.5486C14.2203 45.8202 14.2166 46.0918 14.2056 46.3596C14.1909 47.0422 14.1726 47.7248 14.279 48.4H13.7579C13.7098 47.6364 13.6865 46.8715 13.6882 46.1064V31.4642C13.6882 30.5835 13.4056 30.334 12.5653 30.1064C11.1708 29.7395 9.76892 29.3395 8.69736 28.2826C8.30103 27.8936 7.87535 28.0881 7.52305 28.2459L7.47902 28.2679C7.16342 28.4147 6.83681 28.5211 6.51021 28.6275C6.06984 28.7743 5.62947 28.9211 5.22213 29.1523C5.13773 29.1963 5.06067 29.2477 4.97993 29.2991C4.82712 29.4022 4.66493 29.4906 4.49553 29.5633L4.4148 29.6C4.3047 29.6514 4.19828 29.6991 4.07351 29.5817C3.93406 29.4569 3.93773 29.3248 4.00012 29.1596L4.20929 28.5321C4.39278 27.9743 4.57626 27.4202 4.81847 26.8807L4.85516 26.8073C4.90654 26.7229 4.95424 26.6385 4.90654 26.5248C4.75975 26.4257 4.62397 26.4991 4.50287 26.5651L4.43681 26.6018L4.35608 26.6385L4.28269 26.6752C2.72672 27.4569 1.17076 28.2385 -0.113645 29.4642C-1.02948 30.3235 -1.87614 31.2536 -2.64575 32.2459C-4.12443 34.2101 -5.33048 36.3655 -6.23108 38.6532C-7.09713 40.811 -7.84575 43.0202 -8.22374 45.3321C-8.29713 45.7578 -8.36319 46.1835 -8.43291 46.6129L-8.72282 48.3633C-8.92465 48.4 -9.11915 48.4 -9.35034 48.4C-9.18153 47.189 -8.98704 45.978 -8.75585 44.7707C-8.67144 44.334 -8.56135 43.9046 -8.44759 43.4752C-8.38153 43.211 -8.31181 42.9505 -8.25309 42.6862C-8.04497 41.8599 -7.79636 41.0442 -7.50814 40.2422L-7.47144 40.1431C-6.70878 37.8387 -5.67395 35.6336 -4.38887 33.5743C-3.76886 32.5869 -3.06929 31.6516 -2.29713 30.778C-0.902636 29.189 0.638648 27.7688 2.57259 26.8771C3.62213 26.3927 4.59828 25.8129 5.56709 25.1963C5.84232 25.0202 5.97076 24.767 6.10287 24.5138C6.15425 24.422 6.20195 24.3266 6.26067 24.2349C6.80012 23.3725 7.36158 22.5321 8.20929 21.9303L8.26801 21.8862C8.37443 21.8018 8.47718 21.7248 8.62397 21.8129C8.75608 21.8862 8.74874 22 8.74507 22.1211V22.2239C8.76709 22.833 8.81846 23.4385 8.86984 24.044C8.88819 24.2385 8.96892 24.411 9.16342 24.4991C9.98544 24.8771 10.6864 25.4275 11.3873 25.9817C11.8093 26.3119 12.2313 26.6422 12.679 26.9358C13.7586 27.6212 14.6533 28.5613 15.2845 29.6734C15.3579 29.8055 15.413 29.945 15.4753 30.1064L15.5708 30.3486C15.912 28.9725 16.646 27.8459 17.3799 26.7266L17.8093 26.0661C17.8827 25.9486 17.9414 25.8239 18.0001 25.6991C18.0808 25.5303 18.1616 25.3615 18.2864 25.2073C18.3766 25.0974 18.433 24.9636 18.4486 24.8223C18.4643 24.6809 18.4385 24.538 18.3744 24.411C18.2937 24.2385 18.2497 24.0587 18.3194 23.8716C18.6313 23.7762 18.7964 23.956 18.9726 24.1431L19.0093 24.1798C19.3396 23.967 19.3029 23.6918 19.1304 23.3982C19.0717 23.2954 19.0203 23.1963 19.1084 23.0973C19.1928 23.0055 19.3065 23.0165 19.4166 23.0496C20.7781 23.4422 22.1322 23.8569 23.3873 24.5395C23.5597 24.6349 23.7396 24.7229 23.9194 24.8073C24.4075 25.0422 24.8955 25.2771 25.2515 25.6697C25.8166 26.2936 26.5396 26.6312 27.2625 26.9688C27.6955 27.1743 28.1249 27.3725 28.5249 27.6367C29.4221 28.1966 30.2521 28.8578 30.9983 29.6073C31.8423 30.4991 32.6313 31.4422 33.3175 32.4551C33.9194 33.3358 34.4919 34.2385 34.9909 35.189C35.6707 36.4834 36.2593 37.8237 36.7524 39.2C37.2111 40.4734 37.6038 41.7651 37.9524 43.0716C38.202 44.0184 38.3634 44.9798 38.5212 45.945C38.657 46.7523 38.7891 47.5596 38.9763 48.367C38.8588 48.4037 38.7304 48.4037 38.5579 48.4037ZM14.6203 29.5119C13.7729 28.4966 12.7799 27.6124 11.6735 26.8881C11.3422 26.6694 11.0248 26.4304 10.7231 26.1725C10.2827 25.8129 9.84232 25.4496 9.32122 25.211C8.7047 24.9321 8.37443 24.5358 8.35241 23.8716V23.7835C8.34874 23.6404 8.34507 23.4973 8.32672 23.3578C8.29737 23.0789 7.97076 22.9321 7.79828 23.1413C7.73956 23.2147 7.66984 23.2734 7.60379 23.3358C7.50709 23.4154 7.42188 23.508 7.35057 23.611C6.50654 24.9541 5.66984 26.2973 5.06067 27.7688C4.97993 27.967 4.92489 28.2275 5.09369 28.389C5.22947 28.5211 5.40195 28.4514 5.57076 28.3817C5.59992 28.369 5.62928 28.3567 5.65883 28.345L6.37443 28.0734C6.85516 27.8826 7.33957 27.6954 7.83498 27.545C8.35975 27.3872 8.75975 27.4789 9.13039 27.8936C9.52288 28.3113 10.0028 28.6371 10.5359 28.8477C11.1194 29.1046 11.7175 29.2991 12.3157 29.4973C12.8368 29.6697 13.3579 29.8422 13.868 30.0514C14.4955 30.3083 15.079 30.6422 15.0717 31.4642C15.0717 31.5927 15.101 31.7211 15.3139 31.7028C15.4203 31.4092 15.4203 31.1156 15.2735 30.822L15.0827 30.433C14.9359 30.1395 14.7891 29.8385 14.6203 29.5119ZM21.2735 24.1945L21.6038 24.3119L23.2368 25.0642C23.5329 25.1986 23.8289 25.3332 24.1249 25.4679C24.2423 25.5229 24.3708 25.578 24.3708 25.7285C24.3708 25.8899 24.2423 25.9119 24.1249 25.934L24.0588 25.9486C23.8811 25.9913 23.7038 26.0354 23.5267 26.0807C23.0717 26.1945 22.6166 26.3083 22.1506 26.378C21.1744 26.5248 20.646 26.9174 20.3781 27.8569C20.3451 27.9743 20.3047 28.0918 20.2607 28.2055C20.202 28.3707 20.1469 28.5358 20.1139 28.6973C20.0221 29.1376 19.7396 29.1817 19.3983 29.211L18.7487 29.2844C18.3928 29.3211 18.0368 29.3651 17.6772 29.3872C17.3836 29.4055 17.2148 29.556 17.1047 29.7908C17.0203 29.967 16.9249 30.1358 16.8331 30.3046C16.657 30.6239 16.4772 30.9431 16.3708 31.2954C16.3194 31.4569 16.246 31.6991 15.9414 31.6918C16.0148 30.811 16.235 29.956 16.5836 29.1486C16.8221 28.5982 17.1561 28.1101 17.49 27.6257C17.7689 27.2147 18.0478 26.8037 18.2717 26.3633C18.6827 25.5376 19.2845 24.8807 19.8937 24.2239L20.0845 24.0147C20.213 23.8716 20.301 23.8312 20.4735 23.8973C20.7414 24.0073 21.0093 24.1028 21.2808 24.1982L21.2735 24.1945Z" fill="black"/>
<path fill-rule="evenodd" clip-rule="evenodd" d="M24.0625 34.5468C23.8497 33.2477 23.8791 32.0147 24.4772 30.7633C25.5451 31.967 25.5194 33.3688 25.4974 34.7376L25.4901 35.3138C25.6736 35.3835 25.7726 35.3174 25.8607 35.2587L25.9488 35.2073C26.4075 35.0055 26.5469 35.0899 26.624 35.6C26.7635 36.5248 26.7708 37.4606 26.7781 38.3927L26.7818 38.7963C26.7818 39.0495 26.646 39.233 26.4699 39.3505C25.9983 39.7002 25.5718 40.107 25.2002 40.5615C24.958 40.8294 24.7158 41.1009 24.4515 41.3468C24.0882 41.6771 23.4717 41.7872 23.0717 41.4826L22.6864 41.1927C22.1066 40.7596 21.5304 40.3303 20.98 39.8569C20.7141 39.6518 20.511 39.3764 20.3936 39.0618C20.2763 38.7473 20.2493 38.4062 20.3158 38.0771C20.3781 37.6954 20.4112 37.3064 20.4442 36.9138C20.4736 36.6055 20.4992 36.2973 20.5396 35.989C20.6424 35.2294 20.7855 35.1413 21.4754 35.4422C21.5378 35.4679 21.6002 35.4862 21.6625 35.5009C21.8277 35.545 22.0002 35.5927 22.1506 35.7945L22.224 35.244C22.2827 34.8037 22.3378 34.3963 22.3341 33.9817V33.9596C22.3341 33.9009 22.3341 33.8275 22.3047 33.8055C21.6442 33.3578 21.7653 32.7706 22.0589 32.2018L22.0956 32.1284C22.3119 31.7711 22.46 31.3766 22.5323 30.9651C22.5323 30.9211 22.5726 30.8807 22.6057 30.8404L22.6497 30.789L22.7047 30.8L22.7598 30.8147C22.8148 31.1963 23.0167 31.5009 23.2148 31.8092C23.3836 32.0697 23.5525 32.3303 23.6369 32.6349C23.7323 32.9982 23.6736 33.3028 23.413 33.5339C23.1561 33.7651 23.1194 34.033 23.1561 34.3413L23.1818 34.5615C23.2038 34.7339 23.2259 34.9101 23.2332 35.0862C23.2662 35.7358 23.3653 35.8165 24.0736 35.6881C24.1433 35.3211 24.1213 34.9541 24.0625 34.5468ZM25.1378 39.7578C25.1745 39.7211 25.2185 39.6881 25.2589 39.655C25.3459 39.577 25.4378 39.5047 25.5341 39.4385C26.0479 39.1083 26.2974 38.6826 26.2093 38.033C26.1616 37.6771 26.1726 37.3174 26.1726 36.9541C26.18 36.767 26.18 36.5798 26.1763 36.3927V36.3046C26.1763 36.1358 26.1763 35.9633 26.0295 35.8275C25.8607 35.8642 25.7029 35.9376 25.5488 36.011C25.3286 36.1101 25.1084 36.2092 24.8699 36.2092C24.5983 36.2092 24.3268 36.2165 24.0552 36.2275C23.1892 36.2569 22.3231 36.2899 21.4901 35.9413C21.2038 35.8202 21.0901 35.9119 21.0754 36.2128C21.0387 36.9468 20.947 37.6734 20.8148 38.3927L20.8112 38.4073C20.7671 38.6385 20.7194 38.9101 20.9433 39.0972C21.7371 39.7477 22.5347 40.3936 23.3359 41.0349C23.6222 41.2697 23.9158 41.2184 24.1103 40.9395C24.266 40.7318 24.4365 40.5356 24.6203 40.3523C24.7928 40.1688 24.9726 39.978 25.1341 39.7578H25.1378ZM24.3928 32.8697C24.4369 32.8917 24.4846 32.9174 24.5323 32.8991L24.9726 32.844C24.6791 33.145 24.4992 33.1486 24.1983 32.8734C24.2681 32.8037 24.3304 32.8367 24.3928 32.8697Z" fill="black"/>
<path d="M24.7046 1.82753C25.2551 3.28808 25.7615 4.389 25.6661 5.92661C25.6294 6.49175 25.2184 7.38349 25.079 7.92661C24.8845 8.67523 24.4771 9.36147 24.4294 10.1541C24.4221 10.2532 24.3487 10.3193 24.1799 10.3523C23.8936 9.97799 23.8569 9.50092 23.8423 9.06055C23.7982 7.68441 23.7322 6.3156 23.4239 4.97248C23.3358 4.5945 23.1927 4.23487 23.0423 3.77248C22.9065 5.02019 22.9065 5.01285 21.7725 5.0312C19.7322 5.06789 17.6991 5.18899 15.6808 5.48257C15.1046 5.56698 15.0569 5.53028 14.6606 4.79267C14.2569 5.06422 14.2679 5.54863 14.0661 5.9156C13.4533 7.04955 12.6643 8.01101 11.4973 8.62753C11.0936 8.84037 10.2716 8.81101 9.33951 8.56514C8.99088 9.67707 8.14685 10.6422 8.4441 11.9486C8.49515 12.1627 8.4986 12.3854 8.45422 12.601C8.40983 12.8166 8.31869 13.0198 8.18721 13.1963C8.04777 13.3945 7.89364 13.4275 7.70281 13.3688C7.50832 13.3101 7.60006 13.1523 7.60373 13.0165C7.62208 11.8202 7.33217 10.6862 6.65327 9.70276C6.02942 8.79266 4.55786 9.02019 4.08813 10.0477C4.00373 10.2385 3.96336 10.4661 3.66611 10.6495C3.61107 9.97799 3.60006 9.36514 3.66978 8.75964C3.81027 7.3495 4.11825 5.96113 4.58721 4.62386C5.27707 2.67916 6.48662 0.960668 8.08446 -0.344949C9.78482 -1.71586 11.8539 -2.55114 14.0294 -2.74495C14.4698 -2.79266 14.9065 -2.87706 15.3468 -2.9211C16.8928 -3.07039 18.4525 -2.87229 19.912 -2.34128C21.8863 -1.64403 23.5891 -0.572473 24.4808 1.42753C24.5358 1.55597 24.6166 1.6734 24.7046 1.82753ZM7.2441 14.7927C7.39089 14.7523 7.49364 14.7596 7.53767 14.8991C7.85327 15.7872 7.86795 16.7119 7.82391 17.633C7.80556 17.9853 7.22208 18.411 6.734 18.4771C6.26795 18.5358 5.83492 18.4734 5.55969 18.0367C5.4129 17.8055 5.523 17.5596 5.6074 17.2844C5.08263 17.2991 4.62758 17.5046 4.15786 17.2844C3.534 16.9945 3.47162 16.7193 3.96703 16.2569L4.09547 16.0991C3.87529 15.8202 3.51566 15.7798 3.28813 15.5303C3.03492 15.2624 2.99822 15.0092 3.20373 14.7413C3.47529 14.3927 3.90832 14.3266 4.20189 14.5578C4.31566 14.6385 4.41107 14.7486 4.47712 14.8734C4.6152 15.1497 4.82883 15.3812 5.0932 15.541C5.35758 15.7008 5.66185 15.7824 5.9707 15.7762C6.63859 15.7945 7.00923 15.3982 7.2441 14.7927Z" fill="black"/>
<path d="M16.1359 19.1119C16.0479 19.7615 16.7268 20.3046 17.3249 20.0661C17.1671 19.4862 16.5616 19.4275 16.1359 19.1119Z" fill="white"/>
<path fill-rule="evenodd" clip-rule="evenodd" d="M15.7432 19.7358C16.1983 20.5945 17.0643 20.833 18.0075 20.3339C18.3928 20.0991 18.5542 19.7248 18.6937 19.3761C18.7536 19.2339 18.7797 19.0797 18.7702 18.9257C18.7606 18.7716 18.7156 18.6219 18.6387 18.4881C18.1249 17.5413 17.4937 17.5156 16.7341 17.6587C15.9084 17.8165 15.3469 18.9945 15.7432 19.7358ZM17.3249 20.0661C16.7267 20.3046 16.0478 19.7615 16.1359 19.1119C16.2717 19.211 16.4221 19.2844 16.5726 19.3578C16.8992 19.5156 17.2185 19.6697 17.3249 20.0661Z" fill="black"/>
<path d="M15.5488 17.3211C15.8497 17.4569 15.8313 17.6624 15.7029 17.8716C15.6075 18.0367 15.4644 18.1358 15.2735 18.0184C15.0974 17.9083 15.1378 17.7578 15.2368 17.6147C15.3176 17.5046 15.3469 17.3468 15.5488 17.3211Z" fill="black"/>
<path d="M18.7928 15.6551C18.6093 15.6624 18.4735 15.6404 18.3524 15.5486C18.2497 15.4752 18.235 15.3725 18.257 15.2587C18.2754 15.1376 18.3744 15.1193 18.4698 15.1266C18.9873 15.1523 19.4974 15.1083 19.9781 14.8918C20.0955 14.8367 20.1983 14.8844 20.2607 14.9872C20.3231 15.1009 20.3341 15.2184 20.2313 15.3321C20.0478 15.545 19.8203 15.6624 19.5341 15.6551H18.7965H18.7928Z" fill="black"/>
<path d="M21.846 13.0275C21.6919 12.6789 21.4827 12.4697 21.1194 12.4514C20.8992 12.4404 20.8625 12.2642 20.7928 12.0918C20.8662 12.0367 20.9213 11.956 20.9873 11.9523C21.7616 11.8899 22.5433 11.8863 23.3176 11.9486C23.5378 11.9633 23.6589 12.2422 23.435 12.3303C23.068 12.4771 22.9763 12.8147 22.7561 13.0569C22.4552 13.3872 22.1983 13.3908 21.846 13.0275ZM14.8369 11.9413C15.2846 11.967 15.6846 11.978 16.0846 12.0147C16.2167 12.0257 16.3781 12.0807 16.3781 12.2606C16.3781 12.4661 16.2093 12.4514 16.0735 12.4477C15.8424 12.4477 15.7176 12.5468 15.6148 12.7633C15.4901 13.0349 15.3616 13.3248 14.9543 13.3064C14.569 13.2881 14.4002 13.0422 14.2901 12.7486C14.2093 12.5395 14.1066 12.4404 13.8864 12.4477C13.7616 12.4514 13.6258 12.4404 13.6112 12.2679C13.5965 12.0844 13.7213 12.0477 13.868 12.0037C14.1838 11.9196 14.5129 11.8984 14.8369 11.9413Z" fill="black"/>
<path d="M17.2809 9.69542C17.0754 10.3119 17.0387 10.2606 16.4368 10.1211C15.4754 9.90093 14.5029 9.41652 13.4901 9.96331C13.4167 10.0037 13.3066 10 13.2112 9.99267C13.079 9.98533 12.9102 10.0404 12.8405 9.87157C12.7634 9.68808 12.8956 9.56698 13.035 9.49359C13.7579 9.12661 14.4112 8.60184 15.3249 8.69726C15.7946 8.74496 16.279 8.5945 16.7671 8.60918C17.457 8.63487 17.5891 8.81836 17.3543 9.48625L17.2809 9.69909V9.69542ZM23.4277 8.9101C23.78 9.1523 23.8864 9.52661 24.0992 9.82753C24.1391 9.87746 24.159 9.94048 24.1549 10.0043C24.1508 10.0681 24.1231 10.128 24.0772 10.1725C23.9891 10.2716 23.879 10.2752 23.78 10.2165C23.079 9.81285 22.3524 9.98166 21.6515 10.1725C21.2772 10.2716 21.1157 10.1431 21.0203 9.83487C20.9579 9.6257 20.9139 9.41285 20.8882 9.19634C20.8405 8.83671 21.1414 8.75964 21.3653 8.74863C22.0442 8.7156 22.7378 8.58349 23.4277 8.9101Z" fill="black"/>
</g>
</g>
<defs>
<clipPath id="clip0_1_568">
<path d="M0.0625 16C0.0625 7.16344 7.22594 0 16.0625 0C24.8991 0 32.0625 7.16344 32.0625 16C32.0625 24.8366 24.8991 32 16.0625 32C7.22594 32 0.0625 24.8366 0.0625 16Z" fill="white"/>
</clipPath>
</defs>
</svg>
