<svg width="26" height="20" viewBox="0 0 26 20" fill="none" xmlns="http://www.w3.org/2000/svg">
<path d="M0.828125 0H25.8281V20H0.828125V0Z" stroke="#E5E7EB"/>
<g clip-path="url(#clip0_1_609)">
<path d="M6.45312 0C7.28193 0 8.07678 0.32924 8.66283 0.915291C9.24889 1.50134 9.57812 2.2962 9.57812 3.125C9.57812 3.9538 9.24889 4.74866 8.66283 5.33471C8.07678 5.92076 7.28193 6.25 6.45312 6.25C5.62432 6.25 4.82947 5.92076 4.24342 5.33471C3.65737 4.74866 3.32812 3.9538 3.32812 3.125C3.32812 2.2962 3.65737 1.50134 4.24342 0.915291C4.82947 0.32924 5.62432 0 6.45312 0ZM20.8281 0C21.6569 0 22.4518 0.32924 23.0378 0.915291C23.6239 1.50134 23.9531 2.2962 23.9531 3.125C23.9531 3.9538 23.6239 4.74866 23.0378 5.33471C22.4518 5.92076 21.6569 6.25 20.8281 6.25C19.9993 6.25 19.2045 5.92076 18.6184 5.33471C18.0324 4.74866 17.7031 3.9538 17.7031 3.125C17.7031 2.2962 18.0324 1.50134 18.6184 0.915291C19.2045 0.32924 19.9993 0 20.8281 0ZM0.828125 11.668C0.828125 9.36719 2.69531 7.5 4.99609 7.5H6.66406C7.28516 7.5 7.875 7.63672 8.40625 7.87891C8.35547 8.16016 8.33203 8.45312 8.33203 8.75C8.33203 10.2422 8.98828 11.582 10.0234 12.5C10.0156 12.5 10.0078 12.5 9.99609 12.5H1.66016C1.20312 12.5 0.828125 12.125 0.828125 11.668ZM16.6602 12.5C16.6523 12.5 16.6445 12.5 16.6328 12.5C17.6719 11.582 18.3242 10.2422 18.3242 8.75C18.3242 8.45312 18.2969 8.16406 18.25 7.87891C18.7812 7.63281 19.3711 7.5 19.9922 7.5H21.6602C23.9609 7.5 25.8281 9.36719 25.8281 11.668C25.8281 12.1289 25.4531 12.5 24.9961 12.5H16.6602ZM9.57812 8.75C9.57812 7.75544 9.97321 6.80161 10.6765 6.09835C11.3797 5.39509 12.3336 5 13.3281 5C14.3227 5 15.2765 5.39509 15.9798 6.09835C16.683 6.80161 17.0781 7.75544 17.0781 8.75C17.0781 9.74456 16.683 10.6984 15.9798 11.4017C15.2765 12.1049 14.3227 12.5 13.3281 12.5C12.3336 12.5 11.3797 12.1049 10.6765 11.4017C9.97321 10.6984 9.57812 9.74456 9.57812 8.75ZM5.82812 18.957C5.82812 16.082 8.16016 13.75 11.0352 13.75H15.6211C18.4961 13.75 20.8281 16.082 20.8281 18.957C20.8281 19.5312 20.3633 20 19.7852 20H6.87109C6.29688 20 5.82812 19.5352 5.82812 18.957Z" fill="#374151"/>
</g>
<defs>
<clipPath id="clip0_1_609">
<path d="M0.828125 0H25.8281V20H0.828125V0Z" fill="white"/>
</clipPath>
</defs>
</svg>
