<svg width="17" height="16" viewBox="0 0 17 16" fill="none" xmlns="http://www.w3.org/2000/svg">
<g clip-path="url(#clip0_1_713)">
<g clip-path="url(#clip1_1_713)">
<path d="M8.82812 16C10.9499 16 12.9847 15.1571 14.485 13.6569C15.9853 12.1566 16.8281 10.1217 16.8281 8C16.8281 5.87827 15.9853 3.84344 14.485 2.34315C12.9847 0.842855 10.9499 0 8.82812 0C6.70639 0 4.67156 0.842855 3.17127 2.34315C1.67098 3.84344 0.828125 5.87827 0.828125 8C0.828125 10.1217 1.67098 12.1566 3.17127 13.6569C4.67156 15.1571 6.70639 16 8.82812 16ZM8.82812 4C9.24375 4 9.57812 4.33437 9.57812 4.75V8.25C9.57812 8.66562 9.24375 9 8.82812 9C8.4125 9 8.07812 8.66562 8.07812 8.25V4.75C8.07812 4.33437 8.4125 4 8.82812 4ZM7.82812 11C7.82812 10.7348 7.93348 10.4804 8.12102 10.2929C8.30855 10.1054 8.56291 10 8.82812 10C9.09334 10 9.3477 10.1054 9.53523 10.2929C9.72277 10.4804 9.82812 10.7348 9.82812 11C9.82812 11.2652 9.72277 11.5196 9.53523 11.7071C9.3477 11.8946 9.09334 12 8.82812 12C8.56291 12 8.30855 11.8946 8.12102 11.7071C7.93348 11.5196 7.82812 11.2652 7.82812 11Z" fill="#4B5563"/>
</g>
</g>
<defs>
<clipPath id="clip0_1_713">
<rect width="16" height="16" fill="white" transform="translate(0.828125)"/>
</clipPath>
<clipPath id="clip1_1_713">
<path d="M0.828125 0H16.8281V16H0.828125V0Z" fill="white"/>
</clipPath>
</defs>
</svg>
