<svg width="26" height="20" viewBox="0 0 26 20" fill="none" xmlns="http://www.w3.org/2000/svg">
<path d="M0.5 0H25.5V20H0.5V0Z" stroke="#E5E7EB"/>
<g clip-path="url(#clip0_1_623)">
<path d="M4.25 5C4.25 3.67392 4.77678 2.40215 5.71447 1.46447C6.65215 0.526784 7.92392 0 9.25 0C10.5761 0 11.8479 0.526784 12.7855 1.46447C13.7232 2.40215 14.25 3.67392 14.25 5C14.25 6.32608 13.7232 7.59785 12.7855 8.53553C11.8479 9.47322 10.5761 10 9.25 10C7.92392 10 6.65215 9.47322 5.71447 8.53553C4.77678 7.59785 4.25 6.32608 4.25 5ZM0.5 18.8398C0.5 14.9922 3.61719 11.875 7.46484 11.875H11.0352C14.8828 11.875 18 14.9922 18 18.8398C18 19.4805 17.4805 20 16.8398 20H1.66016C1.01953 20 0.5 19.4805 0.5 18.8398ZM20.1875 12.1875V9.6875H17.6875C17.168 9.6875 16.75 9.26953 16.75 8.75C16.75 8.23047 17.168 7.8125 17.6875 7.8125H20.1875V5.3125C20.1875 4.79297 20.6055 4.375 21.125 4.375C21.6445 4.375 22.0625 4.79297 22.0625 5.3125V7.8125H24.5625C25.082 7.8125 25.5 8.23047 25.5 8.75C25.5 9.26953 25.082 9.6875 24.5625 9.6875H22.0625V12.1875C22.0625 12.707 21.6445 13.125 21.125 13.125C20.6055 13.125 20.1875 12.707 20.1875 12.1875Z" fill="#374151"/>
</g>
<defs>
<clipPath id="clip0_1_623">
<path d="M0.5 0H25.5V20H0.5V0Z" fill="white"/>
</clipPath>
</defs>
</svg>
