<svg width="15" height="14" viewBox="0 0 15 14" fill="none" xmlns="http://www.w3.org/2000/svg">
<g clip-path="url(#clip0_1_142)">
<path d="M9.06842 1.42218C9.06842 1.0808 8.93281 0.753406 8.69142 0.512014C8.45003 0.270622 8.12263 0.13501 7.78125 0.13501C7.43987 0.13501 7.11247 0.270622 6.87108 0.512014C6.62969 0.753406 6.49408 1.0808 6.49408 1.42218C6.49408 1.76356 6.62969 2.09096 6.87108 2.33235C7.11247 2.57375 7.43987 2.70936 7.78125 2.70936C8.12263 2.70936 8.45003 2.57375 8.69142 2.33235C8.93281 2.09096 9.06842 1.76356 9.06842 1.42218ZM9.06842 12.5777C9.06842 12.2363 8.93281 11.9089 8.69142 11.6675C8.45003 11.4261 8.12263 11.2905 7.78125 11.2905C7.43987 11.2905 7.11247 11.4261 6.87108 11.6675C6.62969 11.9089 6.49408 12.2363 6.49408 12.5777C6.49408 12.9191 6.62969 13.2465 6.87108 13.4879C7.11247 13.7293 7.43987 13.8649 7.78125 13.8649C8.12263 13.8649 8.45003 13.7293 8.69142 13.4879C8.93281 13.2465 9.06842 12.9191 9.06842 12.5777ZM2.2035 8.28711C2.54487 8.28711 2.87227 8.1515 3.11366 7.91011C3.35506 7.66872 3.49067 7.34132 3.49067 6.99994C3.49067 6.65856 3.35506 6.33116 3.11366 6.08977C2.87227 5.84838 2.54487 5.71276 2.2035 5.71276C1.86212 5.71276 1.53472 5.84838 1.29333 6.08977C1.05193 6.33116 0.916321 6.65856 0.916321 6.99994C0.916321 7.34132 1.05193 7.66872 1.29333 7.91011C1.53472 8.1515 1.86212 8.28711 2.2035 8.28711ZM14.6462 6.99994C14.6462 6.65856 14.5106 6.33116 14.2692 6.08977C14.0278 5.84838 13.7004 5.71276 13.359 5.71276C13.0176 5.71276 12.6902 5.84838 12.4488 6.08977C12.2074 6.33116 12.0718 6.65856 12.0718 6.99994C12.0718 7.34132 12.2074 7.66872 12.4488 7.91011C12.6902 8.1515 13.0176 8.28711 13.359 8.28711C13.7004 8.28711 14.0278 8.1515 14.2692 7.91011C14.5106 7.66872 14.6462 7.34132 14.6462 6.99994ZM4.74835 11.8537C4.8679 11.7341 4.96274 11.5922 5.02744 11.436C5.09215 11.2798 5.12545 11.1123 5.12545 10.9433C5.12545 10.7742 5.09215 10.6067 5.02744 10.4505C4.96274 10.2943 4.8679 10.1524 4.74835 10.0328C4.62879 9.91329 4.48686 9.81845 4.33065 9.75375C4.17444 9.68904 4.00702 9.65574 3.83794 9.65574C3.49647 9.65574 3.16899 9.79139 2.92753 10.0328C2.68608 10.2743 2.55043 10.6018 2.55043 10.9433C2.55043 11.2847 2.68608 11.6122 2.92753 11.8537C3.16899 12.0951 3.49647 12.2308 3.83794 12.2308C4.17941 12.2308 4.50689 12.0951 4.74835 11.8537ZM4.74835 3.96435C4.87384 3.84619 4.97433 3.70402 5.04384 3.54629C5.11335 3.38855 5.15047 3.21846 5.153 3.04611C5.15553 2.87375 5.12341 2.70265 5.05856 2.54294C4.99371 2.38323 4.89744 2.23818 4.77546 2.11638C4.65349 1.99458 4.50829 1.89853 4.34849 1.83391C4.18868 1.76929 4.01753 1.73743 3.84518 1.74021C3.67283 1.743 3.5028 1.78037 3.34516 1.85011C3.18753 1.91986 3.04551 2.02055 2.92753 2.14622C2.68608 2.38767 2.55043 2.71516 2.55043 3.05663C2.55043 3.3981 2.68608 3.72558 2.92753 3.96703C3.16899 4.20849 3.49647 4.34414 3.83794 4.34414C4.17941 4.34414 4.50689 4.20849 4.74835 3.96703V3.96435ZM10.8142 11.8537C10.9337 11.9732 11.0756 12.0681 11.2319 12.1328C11.3881 12.1975 11.5555 12.2308 11.7246 12.2308C11.8936 12.2308 12.0611 12.1975 12.2173 12.1328C12.3735 12.0681 12.5154 11.9732 12.635 11.8537C12.7545 11.7341 12.8494 11.5922 12.9141 11.436C12.9788 11.2798 13.0121 11.1123 13.0121 10.9433C13.0121 10.7742 12.9788 10.6067 12.9141 10.4505C12.8494 10.2943 12.7545 10.1524 12.635 10.0328C12.5154 9.91329 12.3735 9.81845 12.2173 9.75375C12.0611 9.68904 11.8936 9.65574 11.7246 9.65574C11.5555 9.65574 11.3881 9.68904 11.2319 9.75375C11.0756 9.81845 10.9337 9.91329 10.8142 10.0328C10.6946 10.1524 10.5998 10.2943 10.5351 10.4505C10.4704 10.6067 10.4371 10.7742 10.4371 10.9433C10.4371 11.1123 10.4704 11.2798 10.5351 11.436C10.5998 11.5922 10.6946 11.7341 10.8142 11.8537Z" fill="white"/>
</g>
<defs>
<clipPath id="clip0_1_142">
<path d="M0.916321 0.13501H14.6462V13.8649H0.916321V0.13501Z" fill="white"/>
</clipPath>
</defs>
</svg>
