<svg width="21" height="20" viewBox="0 0 21 20" fill="none" xmlns="http://www.w3.org/2000/svg">
<path d="M0.65625 0H20.6562V20H0.65625V0Z" stroke="#E5E7EB"/>
<g clip-path="url(#clip0_1_616)">
<path d="M7.84375 1.875H13.4688C13.6406 1.875 13.7812 2.01562 13.7812 2.1875V3.75H7.53125V2.1875C7.53125 2.01562 7.67188 1.875 7.84375 1.875ZM5.65625 2.1875V3.75H3.15625C1.77734 3.75 0.65625 4.87109 0.65625 6.25V10H8.15625H13.1562H20.6562V6.25C20.6562 4.87109 19.5352 3.75 18.1562 3.75H15.6562V2.1875C15.6562 0.980469 14.6758 0 13.4688 0H7.84375C6.63672 0 5.65625 0.980469 5.65625 2.1875ZM20.6562 11.25H13.1562V12.5C13.1562 13.1914 12.5977 13.75 11.9062 13.75H9.40625C8.71484 13.75 8.15625 13.1914 8.15625 12.5V11.25H0.65625V16.25C0.65625 17.6289 1.77734 18.75 3.15625 18.75H18.1562C19.5352 18.75 20.6562 17.6289 20.6562 16.25V11.25Z" fill="#374151"/>
</g>
<defs>
<clipPath id="clip0_1_616">
<path d="M0.65625 0H20.6562V20H0.65625V0Z" fill="white"/>
</clipPath>
</defs>
</svg>
