<svg width="15" height="16" viewBox="0 0 15 16" fill="none" xmlns="http://www.w3.org/2000/svg">
<g clip-path="url(#clip0_1_637)">
<path d="M7.06253 0C6.50941 0 6.06253 0.446875 6.06253 1V1.55938C3.79691 1.91875 2.06253 3.88125 2.06253 6.25V7.29375C2.06253 8.7125 1.57816 10.0906 0.693784 11.1969L0.228159 11.7812C0.0469086 12.0063 0.0125336 12.3156 0.137534 12.575C0.262534 12.8344 0.525034 13 0.812534 13H13.3125C13.6 13 13.8625 12.8344 13.9875 12.575C14.1125 12.3156 14.0782 12.0063 13.8969 11.7812L13.4313 11.2C12.5469 10.0906 12.0625 8.7125 12.0625 7.29375V6.25C12.0625 3.88125 10.3282 1.91875 8.06253 1.55938V1C8.06253 0.446875 7.61566 0 7.06253 0ZM7.06253 3H7.31253C9.10628 3 10.5625 4.45625 10.5625 6.25V7.29375C10.5625 8.79062 10.9969 10.25 11.8032 11.5H2.32191C3.12816 10.25 3.56253 8.79062 3.56253 7.29375V6.25C3.56253 4.45625 5.01878 3 6.81253 3H7.06253ZM9.06253 14H7.06253H5.06253C5.06253 14.5312 5.27191 15.0406 5.64691 15.4156C6.02191 15.7906 6.53128 16 7.06253 16C7.59378 16 8.10316 15.7906 8.47816 15.4156C8.85316 15.0406 9.06253 14.5312 9.06253 14Z" fill="#4B5563"/>
</g>
<defs>
<clipPath id="clip0_1_637">
<path d="M0.0625 0H14.0625V16H0.0625V0Z" fill="white"/>
</clipPath>
</defs>
</svg>
