<svg width="13" height="12" viewBox="0 0 13 12" fill="none" xmlns="http://www.w3.org/2000/svg">
<g clip-path="url(#clip0_1_140)">
<path d="M6.78125 0C8.37255 0 9.89867 0.632141 11.0239 1.75736C12.1491 2.88258 12.7812 4.4087 12.7812 6C12.7812 7.5913 12.1491 9.11742 11.0239 10.2426C9.89867 11.3679 8.37255 12 6.78125 12C5.18995 12 3.66383 11.3679 2.53861 10.2426C1.41339 9.11742 0.78125 7.5913 0.78125 6C0.78125 4.4087 1.41339 2.88258 2.53861 1.75736C3.66383 0.632141 5.18995 0 6.78125 0ZM6.21875 2.8125V6C6.21875 6.1875 6.3125 6.36328 6.46953 6.46875L8.71953 7.96875C8.97734 8.14219 9.32656 8.07187 9.5 7.81172C9.67344 7.55156 9.60312 7.20469 9.34297 7.03125L7.34375 5.7V2.8125C7.34375 2.50078 7.09297 2.25 6.78125 2.25C6.46953 2.25 6.21875 2.50078 6.21875 2.8125Z" fill="#1F2937"/>
</g>
<defs>
<clipPath id="clip0_1_140">
<path d="M0.78125 0H12.7812V12H0.78125V0Z" fill="white"/>
</clipPath>
</defs>
</svg>
