<svg width="18" height="20" viewBox="0 0 18 20" fill="none" xmlns="http://www.w3.org/2000/svg">
<path d="M0.25 0H17.75V20H0.25V0Z" stroke="#E5E7EB"/>
<g clip-path="url(#clip0_1_600)">
<path d="M9 7.91641C8.58794 7.91656 8.18517 8.03889 7.84263 8.26793C7.50009 8.49698 7.23315 8.82244 7.07557 9.20318C6.91798 9.58393 6.87683 10.0028 6.95732 10.407C7.0378 10.8111 7.23631 11.1823 7.52773 11.4736C7.81916 11.7649 8.19042 11.9633 8.59458 12.0436C8.99874 12.1239 9.41764 12.0826 9.79832 11.9249C10.179 11.7672 10.5044 11.5001 10.7333 11.1575C10.9622 10.8149 11.0844 10.4121 11.0844 10C11.084 9.44739 10.8642 8.91754 10.4734 8.52686C10.0825 8.13618 9.55261 7.91661 9 7.91641ZM13.8715 6.31484C13.7654 6.04603 13.6052 5.80188 13.4009 5.59754C13.1966 5.3932 12.9524 5.23302 12.6836 5.12695C11.8633 4.80312 9.91016 4.87578 9 4.87578C8.08984 4.87578 6.13867 4.80039 5.31602 5.12695C5.0472 5.23302 4.80305 5.3932 4.59871 5.59754C4.39437 5.80188 4.2342 6.04603 4.12812 6.31484C3.80469 7.13516 3.87695 9.09023 3.87695 9.99961C3.87695 10.909 3.80469 12.8617 4.12969 13.6848C4.23576 13.9536 4.39593 14.1977 4.60028 14.4021C4.80462 14.6064 5.04877 14.7666 5.31758 14.8727C6.13789 15.1965 8.09102 15.1238 9.00156 15.1238C9.91211 15.1238 11.8625 15.1992 12.6852 14.8727C12.954 14.7666 13.1981 14.6064 13.4025 14.4021C13.6068 14.1977 13.767 13.9536 13.873 13.6848C14.1992 12.8645 14.1242 10.9094 14.1242 10C14.1242 9.09062 14.1992 7.13828 13.873 6.31523L13.8715 6.31484ZM9 13.2031C8.36648 13.2031 7.74719 13.0153 7.22044 12.6633C6.69369 12.3113 6.28314 11.8111 6.0407 11.2258C5.79826 10.6405 5.73483 9.99645 5.85842 9.3751C5.98202 8.75376 6.28708 8.18301 6.73505 7.73505C7.18301 7.28708 7.75376 6.98202 8.3751 6.85842C8.99645 6.73483 9.64049 6.79826 10.2258 7.0407C10.8111 7.28314 11.3113 7.69369 11.6633 8.22044C12.0153 8.74719 12.2031 9.36648 12.2031 10C12.2036 10.4208 12.1211 10.8375 11.9603 11.2264C11.7996 11.6152 11.5636 11.9686 11.2661 12.2661C10.9686 12.5636 10.6152 12.7996 10.2264 12.9603C9.83754 13.1211 9.42078 13.2036 9 13.2031ZM12.3352 7.41016C12.1873 7.41023 12.0427 7.36645 11.9197 7.28434C11.7967 7.20224 11.7008 7.0855 11.6441 6.94889C11.5875 6.81228 11.5726 6.66194 11.6014 6.51688C11.6302 6.37182 11.7014 6.23857 11.806 6.13397C11.9105 6.02936 12.0437 5.95812 12.1888 5.92924C12.3338 5.90036 12.4842 5.91514 12.6208 5.97172C12.7574 6.0283 12.8742 6.12412 12.9564 6.24708C13.0386 6.37004 13.0824 6.51461 13.0824 6.6625C13.0828 6.76071 13.0639 6.85803 13.0266 6.94889C12.9893 7.03974 12.9344 7.12234 12.8651 7.19195C12.7959 7.26156 12.7135 7.3168 12.6228 7.35452C12.5322 7.39223 12.4349 7.41167 12.3367 7.41172L12.3352 7.41016ZM15.875 1.25H2.125C1.62772 1.25 1.15081 1.44754 0.799175 1.79917C0.447544 2.15081 0.25 2.62772 0.25 3.125L0.25 16.875C0.25 17.3723 0.447544 17.8492 0.799175 18.2008C1.15081 18.5525 1.62772 18.75 2.125 18.75H15.875C16.3723 18.75 16.8492 18.5525 17.2008 18.2008C17.5525 17.8492 17.75 17.3723 17.75 16.875V3.125C17.75 2.62772 17.5525 2.15081 17.2008 1.79917C16.8492 1.44754 16.3723 1.25 15.875 1.25ZM15.2063 12.5781C15.1559 13.5793 14.9273 14.4664 14.1965 15.1953C13.4656 15.9242 12.5793 16.1574 11.5793 16.2051C10.5477 16.2633 7.45469 16.2633 6.42305 16.2051C5.42188 16.1547 4.53789 15.9258 3.80586 15.1953C3.07383 14.4648 2.84375 13.5773 2.79609 12.5781C2.73789 11.5461 2.73789 8.45273 2.79609 7.42188C2.84648 6.4207 3.07227 5.53359 3.80586 4.80469C4.53945 4.07578 5.42578 3.84531 6.42305 3.79766C7.45469 3.73945 10.5477 3.73945 11.5793 3.79766C12.5805 3.84805 13.4672 4.07695 14.1965 4.80742C14.9258 5.53789 15.1586 6.42539 15.2063 7.42656C15.2645 8.45469 15.2645 11.5453 15.2063 12.5781Z" fill="#374151"/>
</g>
<defs>
<clipPath id="clip0_1_600">
<path d="M0.25 0H17.75V20H0.25V0Z" fill="white"/>
</clipPath>
</defs>
</svg>
