<svg width="17" height="17" viewBox="0 0 17 17" fill="none" xmlns="http://www.w3.org/2000/svg">
<path d="M0.515625 0H16.5156V17H0.515625V0Z" stroke="#E5E7EB"/>
<g clip-path="url(#clip0_1_692)">
<path d="M9.51562 3.41558V11C9.51562 11.5531 9.06875 12 8.51562 12C7.9625 12 7.51562 11.5531 7.51562 11V3.41558L5.22188 5.70933C4.83125 6.09995 4.19688 6.09995 3.80625 5.70933C3.41563 5.3187 3.41563 4.68433 3.80625 4.2937L7.80625 0.293701C8.19688 -0.0969238 8.83125 -0.0969238 9.22188 0.293701L13.2219 4.2937C13.6125 4.68433 13.6125 5.3187 13.2219 5.70933C12.8313 6.09995 12.1969 6.09995 11.8062 5.70933L9.51562 3.41558ZM2.51562 11H6.51562C6.51562 12.1031 7.4125 13 8.51562 13C9.61875 13 10.5156 12.1031 10.5156 11H14.5156C15.6187 11 16.5156 11.8968 16.5156 13V14C16.5156 15.1031 15.6187 16 14.5156 16H2.51562C1.4125 16 0.515625 15.1031 0.515625 14V13C0.515625 11.8968 1.4125 11 2.51562 11ZM14.0156 14.25C14.2145 14.25 14.4053 14.1709 14.546 14.0303C14.6866 13.8896 14.7656 13.6989 14.7656 13.5C14.7656 13.301 14.6866 13.1103 14.546 12.9696C14.4053 12.829 14.2145 12.75 14.0156 12.75C13.8167 12.75 13.6259 12.829 13.4853 12.9696C13.3446 13.1103 13.2656 13.301 13.2656 13.5C13.2656 13.6989 13.3446 13.8896 13.4853 14.0303C13.6259 14.1709 13.8167 14.25 14.0156 14.25Z" fill="#1F2937"/>
</g>
<defs>
<clipPath id="clip0_1_692">
<path d="M0.515625 0H16.5156V16H0.515625V0Z" fill="white"/>
</clipPath>
</defs>
</svg>
